<?xml version="1.0" encoding="utf-8"?>
<!-- Generator: Adobe Illustrator 19.2.1, SVG Export Plug-In . SVG Version: 6.00 Build 0)  -->
<svg version="1.1" id="layer" xmlns="http://www.w3.org/2000/svg" xmlns:xlink="http://www.w3.org/1999/xlink" x="0px" y="0px"
	 viewBox="0 0 652 652" style="enable-background:new 0 0 652 652;" xml:space="preserve">
<style type="text/css">
	.st0{fill:#00467F;}
	.st1{fill:#003E6B;}
	.st2{fill:#FFFFFF;}
</style>
<path class="st0" d="M232.7,319.2v-26.5h6.6c6.1,0,8.8,2,8.8,6.9c0,2.8-1.2,4.6-3.4,5.6v0.1c3,1.1,4.1,3.3,4.1,6.3
	c0,6.1-4,7.6-9.1,7.6 M239.4,303.7c2.2,0,4.2-0.8,4.2-3.7c0-2.8-2.1-3.4-4.2-3.4H237v7.1H239.4z M239.9,315.3c3.1,0,4.4-1.1,4.4-4
	c0-2.9-1.5-4.1-4.4-4.1H237v8H239.9z"/>
<path class="st0" d="M264.6,319.2l-3.8-10.9h-3.4v10.9h-4.4v-26.5h7c5.7,0,8.4,2.2,8.4,7.4c0,3.4-1.4,5.4-3.7,6.5l4.6,12.7
	 M260,304.5c2,0,4.1-0.7,4.1-4.1c0-3.7-2.1-4-4.1-4h-2.5v8.1H260z"/>
<rect x="273.1" y="292.7" class="st0" width="4.4" height="26.5"/>
<polyline class="st0" points="286.6,319.2 286.6,296.7 281.1,296.7 281.1,292.7 296.4,292.7 296.4,296.7 290.9,296.7 290.9,319.2 
	"/>
<rect x="300" y="292.7" class="st0" width="4.4" height="26.5"/>
<path class="st0" d="M319.4,299.7c-0.6-2.3-1.5-3.7-3.6-3.7c-1.9,0-3,1-3,2.7c0,5.5,10.9,4.9,10.9,13.6c0,4.6-3,7.2-7.8,7.2
	c-4.7,0-6.9-2.3-7.8-7.1l4.1-0.7c0.5,2.7,1.5,4.1,3.9,4.1c2,0,3.4-1.1,3.4-3.2c0-5.8-10.8-5.1-10.8-13.6c0-4.1,2.7-6.7,7.1-6.7
	c4.6,0,6.7,2.6,7.4,6.6"/>
<polyline class="st0" points="339.7,319.2 339.7,307.5 332.2,307.5 332.2,319.2 327.8,319.2 327.8,292.7 332.2,292.7 332.2,303.5 
	339.7,303.5 339.7,292.7 344,292.7 344,319.2 "/>
<path class="st0" d="M371.5,310.6c-0.8,5.9-3.3,9-8.1,9c-6.3,0-8.4-5.2-8.4-13.7c0-7.7,2.2-13.5,8.5-13.5c5.1,0,7.1,3.2,7.8,8.6
	l-4.1,0.4c-0.6-3.4-1.7-5-3.7-5c-2.7,0-4.1,2.8-4.1,9.6c0,7.4,1.2,9.8,4.1,9.8c2.1,0,3.4-1.9,3.9-5.5"/>
<path class="st0" d="M374.7,306c0-8.8,2.5-13.6,8.8-13.6c6.2,0,8.8,4.8,8.8,13.6c0,8.7-2.7,13.6-8.8,13.6
	C377.4,319.6,374.7,314.7,374.7,306 M387.8,306c0-6.9-1.4-9.8-4.3-9.8c-2.8,0-4.3,2.9-4.3,9.8c0,7.2,1.6,9.8,4.3,9.8
	C386.3,315.8,387.8,313.1,387.8,306"/>
<polyline class="st0" points="396.6,319.2 396.6,292.7 401,292.7 401,315.2 409.9,315.2 409.9,319.2 "/>
<path class="st0" d="M424.9,292.7h4.3v18.1c0,5.7-2.5,8.8-8.2,8.8c-5.7,0-8-3-8-8.8v-18.1h4.4v18.7c0,3.1,1.1,4.4,3.7,4.4
	c2.5,0,3.8-1.3,3.8-4.4"/>
<polyline class="st0" points="451.1,319.2 451.1,299.7 451,299.7 446.2,319.2 443.1,319.2 438.3,299.7 438.2,299.7 438.2,319.2 
	434.3,319.2 434.3,292.7 440.3,292.7 444.6,310.5 444.7,310.5 449.2,292.7 455,292.7 455,319.2 "/>
<path class="st0" d="M460.3,319.2v-26.5h6.6c6.1,0,8.8,2,8.8,6.9c0,2.8-1.2,4.6-3.4,5.6v0.1c3,1.1,4.1,3.3,4.1,6.3
	c0,6.1-4,7.6-9.1,7.6 M467,303.7c2.3,0,4.2-0.8,4.2-3.7c0-2.8-2.1-3.4-4.2-3.4h-2.5v7.1H467z M467.5,315.3c3.1,0,4.4-1.1,4.4-4
	c0-2.9-1.5-4.1-4.4-4.1h-2.9v8H467.5z"/>
<rect x="480.7" y="292.7" class="st0" width="4.4" height="26.5"/>
<path class="st0" d="M502.2,319.2l-1.4-6.8h-6.4l-1.4,6.8h-4.4l6-26.5h5.9l6.2,26.5 M495.2,308.5h4.8l-2.4-11.6h-0.1L495.2,308.5z"
	/>
<rect x="232.7" y="328.3" class="st0" width="4.4" height="26.6"/>
<polyline class="st0" points="254.8,354.8 246.3,336.5 246.2,336.5 246.2,354.8 242.3,354.8 242.3,328.3 247.4,328.3 254.6,344.4 
	254.7,344.4 254.7,328.3 258.7,328.3 258.7,354.8 "/>
<path class="st0" d="M273.7,335.3c-0.6-2.3-1.5-3.7-3.6-3.7c-1.9,0-3,1-3,2.7c0,5.5,10.9,4.9,10.9,13.6c0,4.6-3,7.2-7.8,7.2
	c-4.7,0-7-2.3-7.8-7.1l4.1-0.7c0.5,2.7,1.5,4.1,3.9,4.1c2,0,3.4-1,3.4-3.1c0-5.8-10.7-5.2-10.7-13.6c0-4.1,2.7-6.7,7.1-6.7
	c4.6,0,6.7,2.6,7.4,6.6"/>
<polyline class="st0" points="286,354.8 286,332.2 280.5,332.2 280.5,328.3 295.8,328.3 295.8,332.2 290.3,332.2 290.3,354.8 "/>
<rect x="299.4" y="328.3" class="st0" width="4.4" height="26.6"/>
<polyline class="st0" points="312.8,354.8 312.8,332.2 307.4,332.2 307.4,328.3 322.7,328.3 322.7,332.2 317.2,332.2 317.2,354.8 
	"/>
<path class="st0" d="M338.1,328.3h4.3v18.1c0,5.7-2.5,8.8-8.2,8.8c-5.7,0-8-3.1-8-8.8v-18.1h4.4v18.7c0,3.1,1.1,4.4,3.7,4.4
	c2.5,0,3.8-1.3,3.8-4.4"/>
<polyline class="st0" points="351.4,354.8 351.4,332.2 345.9,332.2 345.9,328.3 361.2,328.3 361.2,332.2 355.8,332.2 355.8,354.8 
	"/>
<polyline class="st0" points="364.8,354.8 364.8,328.3 378.4,328.3 378.4,332.2 369.2,332.2 369.2,339.2 376.1,339.2 376.1,343 
	369.2,343 369.2,350.8 378.9,350.8 378.9,354.8 "/>
<path class="st0" d="M388.3,341.5c0-8.8,2.6-13.6,8.8-13.6c6.2,0,8.8,4.8,8.8,13.6c0,8.7-2.7,13.6-8.8,13.6
	C391,355.1,388.3,350.2,388.3,341.5 M401.4,341.5c0-6.9-1.4-9.8-4.3-9.8c-2.8,0-4.3,2.9-4.3,9.8c0,7.2,1.6,9.9,4.3,9.9
	C399.9,351.4,401.4,348.7,401.4,341.5"/>
<polyline class="st0" points="410.2,354.8 410.2,328.3 424,328.3 424,332.2 414.6,332.2 414.6,339.2 421.6,339.2 421.6,343 
	414.6,343 414.6,354.8 "/>
<polyline class="st0" points="437.8,354.8 437.8,332.2 432.3,332.2 432.3,328.3 447.6,328.3 447.6,332.2 442.1,332.2 442.1,354.8 
	"/>
<polyline class="st0" points="451.2,354.8 451.2,328.3 464.7,328.3 464.7,332.2 455.6,332.2 455.6,339.2 462.4,339.2 462.4,343 
	455.6,343 455.6,350.8 465.2,350.8 465.2,354.8 "/>
<path class="st0" d="M484.4,346.1c-0.8,5.9-3.3,9-8.1,9c-6.3,0-8.4-5.2-8.4-13.7c0-7.7,2.2-13.5,8.5-13.5c5.1,0,7.1,3.2,7.8,8.6
	l-4.1,0.4c-0.6-3.4-1.7-5-3.7-5c-2.7,0-4.1,2.9-4.1,9.6c0,7.4,1.2,9.9,4.1,9.9c2.1,0,3.4-1.9,3.9-5.5"/>
<polyline class="st0" points="500.2,354.8 500.2,343 492.7,343 492.7,354.8 488.3,354.8 488.3,328.3 492.7,328.3 492.7,339.1 
	500.2,339.1 500.2,328.3 504.6,328.3 504.6,354.8 "/>
<polyline class="st0" points="522.3,354.8 513.8,336.5 513.7,336.5 513.7,354.8 509.8,354.8 509.8,328.3 514.9,328.3 522.2,344.4 
	522.2,344.4 522.2,328.3 526.2,328.3 526.2,354.8 "/>
<path class="st0" d="M530.6,341.5c0-8.8,2.5-13.6,8.8-13.6c6.2,0,8.8,4.8,8.8,13.6c0,8.7-2.7,13.6-8.8,13.6
	C533.2,355.1,530.6,350.2,530.6,341.5 M543.6,341.5c0-6.9-1.4-9.8-4.3-9.8c-2.8,0-4.3,2.9-4.3,9.8c0,7.2,1.6,9.9,4.3,9.9
	C542.1,351.4,543.6,348.7,543.6,341.5"/>
<polyline class="st0" points="552.4,354.8 552.4,328.3 556.8,328.3 556.8,350.8 565.7,350.8 565.7,354.8 "/>
<path class="st0" d="M567.9,341.5c0-8.8,2.6-13.6,8.8-13.6c6.2,0,8.8,4.8,8.8,13.6c0,8.7-2.7,13.6-8.8,13.6
	C570.6,355.1,567.9,350.2,567.9,341.5 M581,341.5c0-6.9-1.4-9.8-4.3-9.8c-2.8,0-4.3,2.9-4.3,9.8c0,7.2,1.6,9.9,4.3,9.9
	C579.5,351.4,581,348.7,581,341.5"/>
<path class="st0" d="M602,354.8v-2.2H602c-1.4,1.9-3.1,2.5-5.3,2.5c-5.1,0-7.8-3.9-7.8-13.7c0-7.8,2.4-13.6,8.7-13.6
	c5.2,0,7.2,3.4,7.9,8.5l-4.1,0.4c-0.6-3.2-1.7-4.9-3.8-4.9c-2.8,0-4.3,2.7-4.3,9.6c0,7,1.1,9.8,4.3,9.8c2.5,0,3.9-2,3.9-4.8l0-1.3
	h-3.9v-3.6h7.9v13.2"/>
<polyline class="st0" points="620.4,328.3 616.2,339 616.1,339 612.1,328.3 607.4,328.3 614,344.1 614,354.8 618.4,354.8 
	618.4,344.1 625,328.3 625,328.3 "/>
<rect x="25" y="233.8" class="st1" width="182.2" height="182.2"/>
<path class="st2" d="M43.5,355.1v-62.8H59c14.3,0,20.9,4.7,20.9,16.3c0,6.6-2.9,10.9-8.1,13.3v0.2c7.1,2.5,9.6,7.9,9.6,15
	c0,14.5-9.4,18-21.6,18 M59.4,318.4c5.3,0,10.1-1.9,10.1-8.8c0-6.7-5-7.9-10.1-7.9h-5.8v16.8H59.4z M60.4,345.9
	c7.3,0,10.4-2.5,10.4-9.4c0-6.8-3.5-9.6-10.3-9.6h-6.9v19H60.4z"/>
<path class="st2" d="M126.9,334.7c-1.9,14-7.8,21.2-19.2,21.2c-15,0-19.9-12.2-19.9-32.4c0-18.1,5.2-31.9,20.1-31.9
	c12.1,0,16.9,7.5,18.4,20.3l-9.6,0.9c-1.3-7.9-4-11.9-8.6-11.9c-6.4,0-9.7,6.7-9.7,22.6c0,17.4,2.9,23.2,9.6,23.2c5,0,8-4.4,9.3-13"
	/>
<rect x="135.7" y="292.4" class="st2" width="10.4" height="62.8"/>
<polyline class="st2" points="167.6,355.1 167.6,301.8 154.6,301.8 154.6,292.4 190.8,292.4 190.8,301.8 177.9,301.8 177.9,355.1 
	"/>
<path class="st1" d="M211.6,249.1v-11h-2.7v-2.3h7.8v2.3h-2.7v11 M226.7,249.1v-9.2h-0.1l-2.1,9.2h-1.9l-2.1-9.2h-0.1v9.2h-2.3
	v-13.3h3.5l1.9,8.3h0.1l2-8.3h3.4v13.3H226.7z"/>
</svg>
